<?xml version="1.0" encoding="UTF-8"?>
<svg version="1.1" xmlns="http://www.w3.org/2000/svg" width="500" height="500">
<path d="M0 0 C165 0 330 0 500 0 C500 165 500 330 500 500 C335 500 170 500 0 500 C0 335 0 170 0 0 Z " fill="#FEFEFE" transform="translate(0,0)"/>
<path d="M0 0 C80.40646191 0 80.40646191 0 105.171875 24.01171875 C120.51845921 39.68626592 126.25807064 59.46773536 126.2487793 80.875 C125.98593863 102.68888403 117.28137635 121.5291851 102 137 C96.69483568 142 96.69483568 142 94 142 C92.7734375 140.609375 92.7734375 140.609375 91.375 138.75 C87.06623569 133.52019762 81.00524686 130.44945242 74.25 129.69140625 C65.74198183 129.3539488 59.79319786 130.73248756 53 136 C46.37840732 142.82103824 45.05774861 148.48026249 44 158 C29.48 158 14.96 158 0 158 C0 105.86 0 53.72 0 0 Z " fill="#020202" transform="translate(269,138)"/>
<path d="M0 0 C24.75 0 49.5 0 75 0 C75 10.23 75 20.46 75 31 C62.79 31 50.58 31 38 31 C38 72.91 38 114.82 38 158 C26.12 158 14.24 158 2 158 C2 116.09 2 74.18 2 31 C-2.29 31 -6.58 31 -11 31 C-10.45730469 30.01902344 -9.91460937 29.03804687 -9.35546875 28.02734375 C-8.63180364 26.66459776 -7.90920614 25.30128446 -7.1875 23.9375 C-6.83107422 23.30005859 -6.47464844 22.66261719 -6.10742188 22.00585938 C-2.22700071 14.56541879 -1.79824649 8.99123247 0 0 Z " fill="#010101" transform="translate(189,137)"/>
<path d="M0 0 C15.57525867 0 27.52945458 2.03273263 39 13 C50.11505142 26.04429111 51.89705571 39.57866651 50.796875 56.0390625 C49.18268554 67.93493699 42.40389095 78.67566867 33 86 C29.76799002 87.9603995 26.49187994 89.56046671 23 91 C21.71222656 91.53947266 21.71222656 91.53947266 20.3984375 92.08984375 C13.74633148 94.61417714 7.09869861 94 0 94 C0 62.98 0 31.96 0 0 Z " fill="#FAFAFA" transform="translate(305,170)"/>
<path d="M0 0 C2.81992717 1.82120296 4.50345478 3.00690956 6 6 C6.34717992 11.29449372 6.52421718 14.74663444 3 19 C-0.43186914 21.84354872 -3.52606137 22.58677525 -8 22.42578125 C-11.65181676 21.6483437 -13.45048434 19.67388228 -16 17 C-17.50186547 12.49440359 -17.71589695 8.65786663 -15.8125 4.25 C-11.27193112 -1.38656826 -6.7226832 -1.82681609 0 0 Z " fill="#060606" transform="translate(334,209)"/>
<path d="M0 0 C4.0743356 0.84881992 5.54405875 2.30225596 8 5.625 C8.625 8.625 8.625 8.625 8 11.625 C5.51397551 14.98844489 4.08574477 16.42557749 -0.0625 17.1875 C-3.74345769 16.48263576 -4.87000351 15.7016616 -7 12.625 C-8.0625 9.1875 -8.0625 9.1875 -8 5.625 C-5.59686932 2.20235933 -4.11289267 0.85685264 0 0 Z " fill="#161616" transform="translate(289,315.375)"/>
<path d="M0 0 C2.875 1.5625 2.875 1.5625 5 4 C5.67496305 8.12477419 5.40126114 10.24562906 3.4375 13.9375 C1 16 1 16 -2.5 16.5625 C-6 16 -6 16 -8.4375 14.5 C-10.63559176 10.98305319 -10.81157964 8.04133533 -10 4 C-7.30203057 -0.15072221 -4.80768487 -0.78492814 0 0 Z " fill="#0D0D0D" transform="translate(386,316)"/>
<path d="M0 0 C8.03149606 -0.35433071 8.03149606 -0.35433071 11.5625 0.9375 C13.96464204 4.38405163 13.69325878 7.95720672 13 12 C11.5625 14.5625 11.5625 14.5625 9 16 C5.91796887 16.31297734 3.11460416 16.18321201 0 16 C0 10.72 0 5.44 0 0 Z " fill="#131313" transform="translate(311,316)"/>
<path d="M0 0 C1.423125 -0.061875 2.84625 -0.12375 4.3125 -0.1875 C5.51326172 -0.23970703 5.51326172 -0.23970703 6.73828125 -0.29296875 C9 0 9 0 10.8125 1.35546875 C12 3 12 3 11.6875 5.5 C11.460625 6.325 11.23375 7.15 11 8 C11 11.57575896 12.08840607 13.05295935 14 16 C9.16743695 15.58578031 7.17320782 13.53586014 4 10 C4 11.98 4 13.96 4 16 C2.68 16 1.36 16 0 16 C0 10.72 0 5.44 0 0 Z " fill="#2B2B2B" transform="translate(243,316)"/>
<path d="M0 0 C1.65 0 3.3 0 5 0 C6.98 5.28 8.96 10.56 11 16 C9.68 16 8.36 16 7 16 C6.67 15.34 6.34 14.68 6 14 C3.69 14 1.38 14 -1 14 C-1.33 14.66 -1.66 15.32 -2 16 C-3.32 15.67 -4.64 15.34 -6 15 C-4.02 10.05 -2.04 5.1 0 0 Z " fill="#252525" transform="translate(346,316)"/>
<path d="M0 0 C1.32 0 2.64 0 4 0 C5.703125 1.96875 5.703125 1.96875 7.25 4.5 C8.03117187 5.75296875 8.03117187 5.75296875 8.828125 7.03125 C9.21484375 7.6809375 9.6015625 8.330625 10 9 C10.33 6.03 10.66 3.06 11 0 C11.99 0 12.98 0 14 0 C14 5.28 14 10.56 14 16 C9.60281354 14.90070338 9.20002666 14.44549271 6.75 10.9375 C6.22921875 10.20402344 5.7084375 9.47054688 5.171875 8.71484375 C4.78515625 8.14894531 4.3984375 7.58304687 4 7 C3.67 9.97 3.34 12.94 3 16 C2.01 16 1.02 16 0 16 C0 10.72 0 5.44 0 0 Z " fill="#080808" transform="translate(262,316)"/>
<path d="M0 0 C0.99 0 1.98 0 3 0 C3 1.98 3 3.96 3 6 C5.31 6 7.62 6 10 6 C10 4.02 10 2.04 10 0 C11.32 0 12.64 0 14 0 C14 5.28 14 10.56 14 16 C13.01 16 12.02 16 11 16 C11 13.69 11 11.38 11 9 C8.36 9 5.72 9 3 9 C3 11.31 3 13.62 3 16 C2.01 16 1.02 16 0 16 C0 10.72 0 5.44 0 0 Z " fill="#0B0B0B" transform="translate(198,316)"/>
<path d="M0 0 C3.3 0 6.6 0 10 0 C10 0.99 10 1.98 10 3 C8.02 3 6.04 3 4 3 C4 3.99 4 4.98 4 6 C5.98 6 7.96 6 10 6 C10 6.99 10 7.98 10 9 C8.02 9 6.04 9 4 9 C4 10.32 4 11.64 4 13 C5.98 13 7.96 13 10 13 C10 13.99 10 14.98 10 16 C6.7 16 3.4 16 0 16 C0 10.72 0 5.44 0 0 Z " fill="#151515" transform="translate(228,316)"/>
<path d="M0 0 C1.98 0 3.96 0 6 0 C6 5.28 6 10.56 6 16 C4.02 16 2.04 16 0 16 C0 10.72 0 5.44 0 0 Z " fill="#1E1E1E" transform="translate(217,316)"/>
<path d="M0 0 C3.63 0 7.26 0 11 0 C11 0.99 11 1.98 11 3 C9.68 3 8.36 3 7 3 C7 7.29 7 11.58 7 16 C6.01 16 5.02 16 4 16 C4 11.71 4 7.42 4 3 C2.68 3 1.36 3 0 3 C0 2.01 0 1.02 0 0 Z " fill="#030303" transform="translate(182,316)"/>
<path d="M0 0 C3.29714793 0.32971479 4.6226839 0.6226839 7 3 C6.67028521 6.29714793 6.3773161 7.6226839 4 10 C1.375 9.625 1.375 9.625 -1 9 C-1.625 5.625 -1.625 5.625 -2 2 C-1.34 1.34 -0.68 0.68 0 0 Z " fill="#EBEBEB" transform="translate(381,319)"/>
<path d="M0 0 C0.99 0 1.98 0 3 0 C3 4.29 3 8.58 3 13 C5.31 13 7.62 13 10 13 C10 13.99 10 14.98 10 16 C6.7 16 3.4 16 0 16 C0 10.72 0 5.44 0 0 Z " fill="#080808" transform="translate(362,316)"/>
<path d="M0 0 C4.55555556 0.55555556 4.55555556 0.55555556 6 2 C6.1875 4.9375 6.1875 4.9375 6 8 C5.34 8.66 4.68 9.32 4 10 C-0.55555556 9.44444444 -0.55555556 9.44444444 -2 8 C-2.1875 5.0625 -2.1875 5.0625 -2 2 C-1.34 1.34 -0.68 0.68 0 0 Z " fill="#F0F0F0" transform="translate(287,319)"/>
<path d="M0 0 C1.65 0 3.3 0 5 0 C5 5.28 5 10.56 5 16 C3.35 16 1.7 16 0 16 C0 10.72 0 5.44 0 0 Z " fill="#030303" transform="translate(330,316)"/>
<path d="M0 0 C4.875 0.875 4.875 0.875 6 2 C6.1875 4.9375 6.1875 4.9375 6 8 C5.34 8.66 4.68 9.32 4 10 C2.68 10 1.36 10 0 10 C0 6.7 0 3.4 0 0 Z " fill="#F6F6F6" transform="translate(315,319)"/>
</svg>
